<?xml version="1.0" encoding="UTF-8"?>
<svg width="48px" height="48px" viewBox="0 0 48 48" version="1.1" xmlns="http://www.w3.org/2000/svg" xmlns:xlink="http://www.w3.org/1999/xlink">
    <!-- Generator: Sketch 48.2 (47327) - http://www.bohemiancoding.com/sketch -->
    <title>back to top icon</title>
    <desc>Created with Sketch.</desc>
    <defs></defs>
    <g id="Symbols" stroke="none" stroke-width="1" fill="none" fill-rule="evenodd">
        <g id="back-to-top-icon" fill="#222222" fill-rule="nonzero">
            <g id="Shape">
                <path d="M23.9646192,46.844226 C11.3572482,46.844226 1.0968059,36.5837838 1.0968059,23.9764128 C1.0968059,11.3690418 11.3572482,1.10859951 23.9646192,1.10859951 C36.5719902,1.10859951 46.8324324,11.3690418 46.8324324,23.9764128 C46.8324324,36.5837838 36.5837838,46.844226 23.9646192,46.844226 Z M23.9646192,47.9410319 C37.1970516,47.9410319 47.9292383,37.2088452 47.9292383,23.9764128 C47.9292383,10.7439803 37.1970516,0.0117936118 23.9646192,0.0117936118 C10.7321867,0.0117936118 0,10.7439803 0,23.9764128 C0,37.2088452 10.7321867,47.9410319 23.9646192,47.9410319 Z"></path>
                <polygon points="12.1002457 27.7031941 15.3199017 27.7031941 24.0353808 18.8461916 32.75086 27.7031941 35.970516 27.7031941 24.0353808 15.5793612"></polygon>
            </g>
        </g>
    </g>
</svg>