<?xml version="1.0" encoding="UTF-8"?>
<svg width="91px" height="71px" viewBox="0 0 91 71" version="1.1" xmlns="http://www.w3.org/2000/svg" xmlns:xlink="http://www.w3.org/1999/xlink">
    <!-- Generator: Sketch 48.2 (47327) - http://www.bohemiancoding.com/sketch -->
    <title>Blog Icon</title>
    <desc>Created with Sketch.</desc>
    <defs></defs>
    <g id="Symbols" stroke="none" stroke-width="1" fill="none" fill-rule="evenodd">
        <g id="Blog-Icon" fill="#000000" fill-rule="nonzero">
            <g id="noun_1087178_cc">
                <path d="M7.125,1 C3.231006,1 0,4.231006 0,8.125 L0,63.875 C0,67.768994 3.231006,71 7.125,71 L62.875,71 C66.768994,71 70,67.768994 70,63.875 L70,46.28125 L89.125,27.1875 C89.6897897,26.6245551 90.0072407,25.8599298 90.0072407,25.0625 C90.0072407,24.2650702 89.6897897,23.5004449 89.125,22.9375 L80.0625,13.875 C79.4907322,13.30513 78.7134454,12.9897092 77.90625,13 C77.120695,13.0063116 76.3689503,13.3204736 75.8125,13.875 L70,19.6875 L70,8.125 C70,4.231006 66.768994,1 62.875,1 C62.7709041,0.994571512 62.6665959,0.994571512 62.5625,1 C61.4905694,1.05564302 60.529773,1.67899153 60.0421067,2.63518864 C59.5544404,3.59138574 59.6140102,4.73512725 60.1983723,5.63548954 C60.7827344,6.53585183 61.8030888,7.05601541 62.875,7 C63.556226,7 64,7.443774 64,8.125 L64,25.71875 L46.875,42.875 C46.3128655,43.4391318 45.9980801,44.2036105 46,45 L46,54 C46.0001657,55.6567856 47.3432144,56.9998343 49,57 L58,57 C58.7963895,57.0019199 59.5608682,56.6871345 60.125,56.125 L64,52.25 L64,63.875 C64,64.556226 63.556226,65 62.875,65 L7.125,65 C6.443774,65 6,64.556226 6,63.875 L6,8.125 C6,7.443774 6.443774,7 7.125,7 L53,7 C54.0819077,7.01530087 55.0882441,6.44687411 55.6336632,5.51238145 C56.1790822,4.57788879 56.1790822,3.42211121 55.6336632,2.48761855 C55.0882441,1.55312589 54.0819077,0.984699131 53,1 L7.125,1 Z M14.6875,15 C13.6155694,15.055643 12.654773,15.6789915 12.1671067,16.6351886 C11.6794404,17.5913857 11.7390102,18.7351272 12.3233723,19.6354895 C12.9077344,20.5358518 13.9280888,21.0560154 15,21 L55,21 C56.0819077,21.0153009 57.0882441,20.4468741 57.6336632,19.5123815 C58.1790822,18.5778888 58.1790822,17.4221112 57.6336632,16.4876185 C57.0882441,15.5531259 56.0819077,14.9846991 55,15 L15,15 C14.8959041,14.9945715 14.7915959,14.9945715 14.6875,15 Z M77.9375,20.25 L82.75,25.0625 L79.53125,28.28125 L74.71875,23.46875 L77.9375,20.25 Z M14.6875,27 C13.6155694,27.055643 12.654773,27.6789915 12.1671067,28.6351886 C11.6794404,29.5913857 11.7390102,30.7351272 12.3233723,31.6354895 C12.9077344,32.5358518 13.9280888,33.0560154 15,33 L50,33 C51.0819077,33.0153009 52.0882441,32.4468741 52.6336632,31.5123815 C53.1790822,30.5778888 53.1790822,29.4221112 52.6336632,28.4876185 C52.0882441,27.5531259 51.0819077,26.9846991 50,27 L15,27 C14.8959041,26.9945715 14.7915959,26.9945715 14.6875,27 Z M70.46875,27.71875 L75.28125,32.53125 L56.75,51 L52,51 L52,46.25 L70.46875,27.71875 Z M14.6875,39 C13.6155694,39.055643 12.654773,39.6789915 12.1671067,40.6351886 C11.6794404,41.5913857 11.7390102,42.7351272 12.3233723,43.6354895 C12.9077344,44.5358518 13.9280888,45.0560154 15,45 L39,45 C40.0819077,45.0153009 41.0882441,44.4468741 41.6336632,43.5123815 C42.1790822,42.5778888 42.1790822,41.4221112 41.6336632,40.4876185 C41.0882441,39.5531259 40.0819077,38.9846991 39,39 L15,39 C14.8959041,38.9945715 14.7915959,38.9945715 14.6875,39 Z M14.6875,51 C13.6155694,51.055643 12.654773,51.6789915 12.1671067,52.6351886 C11.6794404,53.5913857 11.7390102,54.7351272 12.3233723,55.6354895 C12.9077344,56.5358518 13.9280888,57.0560154 15,57 L39,57 C40.0819077,57.0153009 41.0882441,56.4468741 41.6336632,55.5123815 C42.1790822,54.5778888 42.1790822,53.4221112 41.6336632,52.4876185 C41.0882441,51.5531259 40.0819077,50.9846991 39,51 L15,51 C14.8959041,50.9945715 14.7915959,50.9945715 14.6875,51 Z" id="Shape"></path>
            </g>
        </g>
    </g>
</svg>