<?xml version="1.0" encoding="UTF-8"?>
<svg width="68px" height="59px" viewBox="0 0 68 59" version="1.1" xmlns="http://www.w3.org/2000/svg" xmlns:xlink="http://www.w3.org/1999/xlink">
    <!-- Generator: Sketch 48.2 (47327) - http://www.bohemiancoding.com/sketch -->
    <title>Carousel Icon</title>
    <desc>Created with Sketch.</desc>
    <defs></defs>
    <g id="Symbols" stroke="none" stroke-width="1" fill="none" fill-rule="evenodd">
        <g id="Carousel-Icon" fill="#000000">
            <g id="noun_815627_cc">
                <path d="M2,0 C0.895431,0 0,0.895431 0,2 L0,36 C0,37.104569 0.895431,38 2,38 L66,38 C67.104569,38 68,37.104569 68,36 L68,2 C68,0.895431 67.104569,0 66,0 L2,0 Z M64,4 L64,34 L4,34 L4,4 L64,4 Z M34,30 C35.104569,30 36,29.104569 36,28 C36,26.895431 35.104569,26 34,26 C32.895431,26 32,26.895431 32,28 C32,29.104569 32.895431,30 34,30 Z M40,30 C41.104569,30 42,29.104569 42,28 C42,26.895431 41.104569,26 40,26 C38.895431,26 38,26.895431 38,28 C38,29.104569 38.895431,30 40,30 Z M28,30 C29.104569,30 30,29.104569 30,28 C30,26.895431 29.104569,26 28,26 C26.895431,26 26,26.895431 26,28 C26,29.104569 26.895431,30 28,30 Z M54.585786,20.585786 C53.804738,21.366835 53.804738,22.633165 54.585786,23.414214 C55.366835,24.195262 56.633165,24.195262 57.414214,23.414214 L60.414214,20.414214 C61.195262,19.633165 61.195262,18.366835 60.414214,17.585786 L57.414214,14.585786 C56.633165,13.804738 55.366835,13.804738 54.585786,14.585786 C53.804738,15.366835 53.804738,16.633165 54.585786,17.414214 L56.171573,19 L54.585786,20.585786 Z M11.828427,19 L13.414214,17.414214 C14.195262,16.633165 14.195262,15.366835 13.414214,14.585786 C12.633165,13.804738 11.366835,13.804738 10.585786,14.585786 L7.585786,17.585786 C6.804738,18.366835 6.804738,19.633165 7.585786,20.414214 L10.585786,23.414214 C11.366835,24.195262 12.633165,24.195262 13.414214,23.414214 C14.195262,22.633165 14.195262,21.366835 13.414214,20.585786 L11.828427,19 Z" id="Shape"></path>
            </g>
        </g>
    </g>
</svg>