<?xml version="1.0" encoding="UTF-8"?>
<svg width="39px" height="36px" viewBox="0 0 39 36" version="1.1" xmlns="http://www.w3.org/2000/svg" xmlns:xlink="http://www.w3.org/1999/xlink">
    <!-- Generator: Sketch 48.2 (47327) - http://www.bohemiancoding.com/sketch -->
    <title>Collect Today Bag</title>
    <desc>Created with Sketch.</desc>
    <defs>
        <polygon id="path-1" points="38.0033194 6.00070279e-15 0 6.00070279e-15 0 35.4698323 38.0033194 35.4698323 38.0033194 0"></polygon>
        <polygon id="path-3" points="38.0033194 6.00070279e-15 0 6.00070279e-15 0 35.4698323 38.0033194 35.4698323 38.0033194 0"></polygon>
    </defs>
    <g id="Symbols" stroke="none" stroke-width="1" fill="none" fill-rule="evenodd">
        <g id="Collect-Today-Bag">
            <g id="collect-today-bag">
                <g id="Rectangle-Clipped">
                    <mask id="mask-2" fill="white">
                        <use xlink:href="#path-1"></use>
                    </mask>
                    <g id="path-1"></g>
                    <rect id="Rectangle" fill="#FFFFFF" fill-rule="nonzero" mask="url(#mask-2)" x="4" y="14" width="30" height="17"></rect>
                </g>
                <g id="Fill-1-Clipped">
                    <mask id="mask-4" fill="white">
                        <use xlink:href="#path-3"></use>
                    </mask>
                    <g id="path-1"></g>
                    <path d="M15.7931869,29.7000455 L8.88498195,22.6187131 L12.4581623,22.6634728 L15.9696924,25.9824515 L26.5000602,14.3567364 L29.7447208,14.3567364 L15.7931869,29.7000455 Z M16.0456996,6.96715276 L16.0456996,6.86158728 C16.0456996,6.01706345 16.5524139,5.14804842 17.0675734,4.58475101 C17.4197399,4.19035838 18.1705216,3.87028385 18.7380416,3.74529432 C18.9989994,3.6878667 19.1096321,3.7588067 19.3249856,3.7588067 C20.0065164,3.7588067 20.6171071,4.06621338 21.1314221,4.63626697 C21.6457371,5.21307675 21.9573664,6.04155464 21.9573664,6.97982062 L21.9573664,8.44506948 L16.0456996,8.44506948 L16.0456996,6.96715276 Z M25.3354618,8.44506948 L25.3354618,6.97982062 C25.3354618,5.11004484 24.8954649,3.38552716 23.7553577,2.11367426 C22.6220067,0.834220648 21.074839,-0.000168904768 19.2253318,-0.000168904768 C17.3901815,-0.000168904768 15.6791762,0.840976838 14.5314683,2.11367426 C13.384605,3.38552716 12.6676042,5.11680103 12.6676042,6.97982062 L12.6676042,8.44506948 L4.76708371,8.44506948 L-0.000253357151,8.44506948 L-0.000253357151,12.4447344 L-0.000253357151,35.4698323 L38.0033194,35.4698323 L38.0033194,8.44506948 L25.3354618,8.44506948 Z" id="Fill-1" fill="#232323" fill-rule="nonzero" mask="url(#mask-4)"></path>
                </g>
            </g>
        </g>
    </g>
</svg>