<?xml version="1.0" encoding="UTF-8"?>
<svg width="10px" height="10px" viewBox="0 0 10 10" version="1.1" xmlns="http://www.w3.org/2000/svg" xmlns:xlink="http://www.w3.org/1999/xlink">
    <!-- Generator: Sketch 48.2 (47327) - http://www.bohemiancoding.com/sketch -->
    <title>Color Icon</title>
    <desc>Created with Sketch.</desc>
    <defs></defs>
    <g id="Symbols" stroke="none" stroke-width="1" fill="none" fill-rule="evenodd">
        <g id="Color-Icon" fill="#000000" fill-rule="nonzero">
            <g id="noun_601137_cc">
                <path d="M9.87779973,1.36919996 C9.7908664,0.74979998 9.44313308,0.434666655 9.16059975,0.228199994 C8.84546643,3.36536354e-16 8.44339977,-0.0543333318 8.08479978,0.086933331 C7.70446646,0.228199994 7.4327998,0.510733319 7.15026647,0.793266645 C6.82426648,1.14099997 6.47653316,1.46699996 6.1396665,1.80386662 C5.80279984,1.58653329 5.61806651,1.60826662 5.34639985,1.86906662 C5.18339986,2.03206661 5.02039986,2.18419994 4.86826653,2.34719994 C4.70526654,2.5210666 4.68353321,2.80359992 4.8465332,2.97746659 C4.92259987,3.06439992 5.03126653,3.11873325 5.13993319,3.19479991 C5.02039986,3.29259991 4.96606653,3.33606658 4.92259987,3.37953324 C3.69466657,4.60746654 2.4558666,5.84626651 1.21706663,7.07419981 C0.934533308,7.35673313 0.706333314,7.66099979 0.59766665,8.06306645 C0.543333318,8.28039977 0.412933322,8.48686643 0.293399992,8.67159976 C0.271666659,8.70419976 0.249933327,8.7259331 0.228199994,8.75853309 C0.0434666655,9.00846642 0.0543333318,9.34533308 0.271666659,9.56266641 C0.282533326,9.57353307 0.293399992,9.58439974 0.293399992,9.58439974 C0.510733319,9.80173307 0.83673331,9.81259973 1.08666664,9.63873307 C1.08666664,9.63873307 1.08666664,9.63873307 1.0975333,9.63873307 C1.28226663,9.50833307 1.45613329,9.33446641 1.66259995,9.30186641 C2.11899994,9.20406642 2.47759993,8.97586642 2.79273326,8.64986643 C4.05326656,7.4327998 5.28119986,6.19399983 6.51999982,4.96606653 C6.57433315,4.9117332 6.62866649,4.86826653 6.71559982,4.7813332 C6.76993315,4.85739987 6.80253315,4.92259987 6.85686648,4.9769332 C7.09593314,5.22686652 7.35673313,5.21599986 7.60666646,4.9769332 C7.73706646,4.8465332 7.86746645,4.7161332 7.99786645,4.58573321 C8.31299977,4.27059988 8.3999331,4.11846655 8.11739978,3.73813323 C8.37819977,3.47733324 8.63899976,3.22739991 8.89979976,2.96659992 C9.25839975,2.59713326 9.68219974,2.28199994 9.84519973,1.76039995 C9.8886664,1.62999996 9.89953306,1.49959996 9.87779973,1.36919996 Z M6.25919983,4.58573321 C4.98779986,5.85713317 3.7163999,7.12853314 2.44499993,8.38906644 C2.20593327,8.6281331 1.93426661,8.78026643 1.60826662,8.86719976 C1.3583333,8.93239976 1.14099997,9.10626642 0.912799975,9.22579975 C0.891066642,9.23666641 0.86933331,9.25839975 0.847599977,9.26926641 C0.782399979,9.32359975 0.684599981,9.31273308 0.630266649,9.25839975 C0.630266649,9.25839975 0.630266649,9.25839975 0.630266649,9.25839975 C0.575933318,9.19319975 0.565066651,9.10626642 0.619399983,9.04106642 C0.695466648,8.94326642 0.771533312,8.84546643 0.83673331,8.74766643 C0.923666641,8.60639977 0.999733306,8.44339977 1.03233331,8.28039977 C1.0975333,7.96526645 1.23879997,7.70446646 1.45613329,7.48713313 C2.77099992,6.1722665 4.08586656,4.85739987 5.37899985,3.56426657 C5.69413318,3.86853323 5.99839984,4.18366655 6.32439983,4.50966654 C6.32439983,4.50966654 6.29179983,4.55313321 6.25919983,4.58573321 Z" id="Shape"></path>
            </g>
        </g>
    </g>
</svg>