<?xml version="1.0" encoding="utf-8"?>
<!-- Generator: Adobe Illustrator 22.1.0, SVG Export Plug-In . SVG Version: 6.00 Build 0)  -->
<svg version="1.1" id="Layer_1" xmlns="http://www.w3.org/2000/svg" xmlns:xlink="http://www.w3.org/1999/xlink" x="0px" y="0px"
	 viewBox="0 0 40 40" style="enable-background:new 0 0 40 40;" xml:space="preserve">
<style type="text/css">
	.st0{fill:none;stroke:#000000;stroke-width:4;stroke-miterlimit:10;}
	.st1{fill:none;stroke:#000000;stroke-width:0.75;stroke-miterlimit:10;}
</style>
<desc>Created with Sketch.</desc>
<circle class="st0" cx="20" cy="20" r="18"/>
<g>
	<path d="M21.1,20.2c0,0.5-0.5,1-1,1h-0.5c-0.6,0-1-0.5-1-1V9.6c0-0.6,0.4-1,1-1h0.5c0.5,0,1,0.4,1,1V20.2z"/>
	<path class="st1" d="M21.1,20.2c0,0.5-0.5,1-1,1h-0.5c-0.6,0-1-0.5-1-1V9.6c0-0.6,0.4-1,1-1h0.5c0.5,0,1,0.4,1,1V20.2z"/>
</g>
<g>
	<path d="M19.8,21.4c-0.6,0-1-0.5-1-1v-0.5c0-0.5,0.4-1,1-1h10.6c0.6,0,1,0.5,1,1v0.5c0,0.5-0.4,1-1,1H19.8z"/>
	<path class="st1" d="M19.8,21.4c-0.6,0-1-0.5-1-1v-0.5c0-0.5,0.4-1,1-1h10.6c0.6,0,1,0.5,1,1v0.5c0,0.5-0.4,1-1,1H19.8z"/>
</g>
</svg>
