<?xml version="1.0" encoding="UTF-8"?>
<svg width="24px" height="24px" viewBox="0 0 24 24" version="1.1" xmlns="http://www.w3.org/2000/svg" xmlns:xlink="http://www.w3.org/1999/xlink">
    <!-- Generator: Sketch 48.2 (47327) - http://www.bohemiancoding.com/sketch -->
    <title>CTA Icon</title>
    <desc>Created with Sketch.</desc>
    <defs></defs>
    <g id="Symbols" stroke="none" stroke-width="1" fill="none" fill-rule="evenodd">
        <g id="CTA-Icon" fill="#000000" fill-rule="nonzero">
            <g id="noun_878626_cc">
                <path d="M19.5,9 L17,9 C16.447,9 16,8.552 16,8 C16,7.448 16.447,7 17,7 L19.5,7 C20.879,7 22,5.878 22,4.5 C22,3.122 20.879,2 19.5,2 L4.5,2 C3.122,2 2,3.122 2,4.5 C2,5.878 3.122,7 4.5,7 L6,7 C6.552,7 7,7.448 7,8 C7,8.552 6.552,9 6,9 L4.5,9 C2.019,9 0,6.981 0,4.5 C0,2.019 2.019,0 4.5,0 L19.5,0 C21.981,0 24,2.019 24,4.5 C24,6.981 21.981,9 19.5,9 Z M18.114,24 L10.728,24 C9.74,24 8.814,23.516 8.252,22.703 L3.436,15.848 C3.149,15.431 3,14.952 3,14.455 C3,13.524 3.517,12.688 4.35,12.271 C5.035,11.927 5.86,12.023 6.448,12.52 L8.939,14.407 C8.969,14.48 9,14.388 9,14.312 L9.016,5.482 C9.016,4.114 10.13,3 11.5,3 C12.87,3 13.984,4.114 13.984,5.484 L13.997,10.235 L13.999,10.236 L19.079,11.631 C20.163,11.846 21,12.867 21,14.043 L20.986,14.401 L20.11,22.18 C20.038,23.183 19.16,24 18.114,24 Z M5.199,14.082 C5.094,14.136 5,14.287 5,14.455 C5,14.545 5.027,14.631 5.078,14.705 L9.893,21.559 C10.085,21.837 10.396,22 10.729,22 L18.115,22 L18.996,14.218 L19,14.043 C19,13.817 18.84,13.621 18.618,13.577 L13.47,12.166 C12.606,11.929 12.001,11.138 11.998,10.242 L11.985,5.487 C11.984,5.217 11.767,5 11.5,5 C11.233,5 11.016,5.217 11.016,5.484 L11,14.314 C11,15.002 10.665,15.867 9.915,16.242 C9.179,16.61 8.301,16.5 7.679,15.959 L5.199,14.082 Z" id="Shape"></path>
            </g>
        </g>
    </g>
</svg>