<?xml version="1.0" encoding="UTF-8"?>
<svg width="24px" height="23px" viewBox="0 0 24 23" version="1.1" xmlns="http://www.w3.org/2000/svg" xmlns:xlink="http://www.w3.org/1999/xlink">
    <!-- Generator: Sketch 48.2 (47327) - http://www.bohemiancoding.com/sketch -->
    <title>Expand Arrow</title>
    <desc>Created with Sketch.</desc>
    <defs></defs>
    <g id="Symbols" stroke="none" stroke-width="1" fill="none" fill-rule="evenodd">
        <g id="Expand-Arrow" fill="#666666" fill-rule="nonzero">
            <g id="expand-arrow">
                <polygon id="Combined-Shape" points="0.677142857 0 0 0 0 5.6097561 1.14285714 5.6097561 1.14285714 1.95905149 8 8.25195122 8.78285714 7.43292683 1.90857143 1.12195122 5.92571429 1.12195122 5.92571429 0"></polygon>
                <polygon id="Shape" points="22.4971429 17.3902439 22.4971429 20.8795122 15.64 14.5853659 14.8571429 15.4885366 21.7314286 21.8780488 17.9257143 21.8780488 17.9257143 23 22.4971429 23 23.64 23 23.64 21.7153659 23.64 17.3902439"></polygon>
                <polygon id="Shape" points="8.10857143 14.5853659 1.35428571 20.8795122 1.35428571 17.3902439 0.211428571 17.3902439 0.211428571 21.7153659 0.211428571 23 1.14285714 23 5.92571429 23 5.92571429 21.8780488 1.90857143 21.8780488 8.83428571 15.4885366"></polygon>
                <polygon id="Shape" points="17.9257143 0 17.9257143 1.12195122 21.7314286 1.12195122 14.8571429 7.43292683 15.64 8.25195122 20.1659682 4.0975816 22.4971429 1.95780488 22.4971429 5.6097561 23.64 5.6097561 23.64 1.12195122 23.64 0 22.4971429 0"></polygon>
            </g>
        </g>
    </g>
</svg>