<?xml version="1.0" encoding="UTF-8"?>
<svg width="9px" height="10px" viewBox="0 0 9 10" version="1.1" xmlns="http://www.w3.org/2000/svg" xmlns:xlink="http://www.w3.org/1999/xlink">
    <!-- Generator: Sketch 48.2 (47327) - http://www.bohemiancoding.com/sketch -->
    <title>File Icon</title>
    <desc>Created with Sketch.</desc>
    <defs></defs>
    <g id="Symbols" stroke="none" stroke-width="1" fill="none" fill-rule="evenodd">
        <g id="File-Icon" fill="#000000" fill-rule="nonzero">
            <g id="file">
                <path d="M8.12283142,0 L0.627299509,0 C0.282356792,0 0.00268412439,0.279361702 0.00268412439,0.624615385 L0.00268412439,9.36937807 C0.00268412439,9.71463175 0.282356792,9.99399345 0.627299509,9.99399345 L6.24890344,9.99399345 L8.74743044,7.49545008 L8.74743044,0.624615385 C8.74744681,0.279361702 8.46806874,0 8.12283142,0 Z M6.15860884,9.11075286 L6.15860884,7.40513912 L7.86420622,7.40513912 L6.15860884,9.11075286 Z M8.04340426,6.75291326 L6.13096563,6.75291326 C5.79301146,6.75291326 5.51959083,7.02641571 5.51959083,7.36430442 L5.51959083,9.27672668 L0.706726678,9.27672668 L0.706726678,0.717348609 L8.04332242,0.717348609 L8.04332242,6.75291326 L8.04340426,6.75291326 Z" id="Shape"></path>
                <path d="M1.56422259,2.41723404 L7.18590835,2.41723404 C7.35854337,2.41723404 7.49821604,2.24422259 7.49821604,2.03042553 C7.49821604,1.81662848 7.35854337,1.64361702 7.18590835,1.64361702 L1.56422259,1.64361702 C1.39160393,1.64361702 1.25191489,1.81662848 1.25191489,2.03042553 C1.25191489,2.24422259 1.39158756,2.41723404 1.56422259,2.41723404 Z" id="Shape"></path>
                <path d="M1.56422259,4.06703764 L7.18590835,4.06703764 C7.35854337,4.06703764 7.49821604,3.89402619 7.49821604,3.68022913 C7.49821604,3.46643208 7.35854337,3.29342062 7.18590835,3.29342062 L1.56422259,3.29342062 C1.39160393,3.29342062 1.25191489,3.46643208 1.25191489,3.68022913 C1.25191489,3.89402619 1.39158756,4.06703764 1.56422259,4.06703764 Z" id="Shape"></path>
                <path d="M1.56422259,5.71692308 L7.18590835,5.71692308 C7.35854337,5.71692308 7.49821604,5.54391162 7.49821604,5.33011457 C7.49821604,5.11631751 7.35854337,4.94330606 7.18590835,4.94330606 L1.56422259,4.94330606 C1.39160393,4.94330606 1.25191489,5.11631751 1.25191489,5.33011457 C1.25191489,5.54391162 1.39158756,5.71692308 1.56422259,5.71692308 Z" id="Shape"></path>
                <path d="M1.56422259,7.38792144 L4.37507365,7.38792144 C4.54770867,7.38792144 4.68738134,7.21490998 4.68738134,7.00111293 C4.68738134,6.78731588 4.54770867,6.61423895 4.37507365,6.61423895 L1.56422259,6.61423895 C1.39160393,6.61423895 1.25191489,6.78725041 1.25191489,7.0010311 C1.25191489,7.21482815 1.39158756,7.38792144 1.56422259,7.38792144 Z" id="Shape"></path>
            </g>
        </g>
    </g>
</svg>