<?xml version="1.0" encoding="UTF-8"?>
<svg width="39px" height="31px" viewBox="0 0 39 31" version="1.1" xmlns="http://www.w3.org/2000/svg" xmlns:xlink="http://www.w3.org/1999/xlink">
    <!-- Generator: Sketch 48.2 (47327) - http://www.bohemiancoding.com/sketch -->
    <title> Home Tomorrow</title>
    <desc>Created with Sketch.</desc>
    <defs>
        <polygon id="path-1" points="0 21.4285714 27.2957746 21.4285714 27.2957746 10.9784732 27.2957746 0.528375 0 0.528375"></polygon>
        <polygon id="path-3" points="0 29.7394821 38 29.7394821 38 -0.000160714286 0 -0.000160714286"></polygon>
        <polygon id="path-5" points="0 29.7394821 38 29.7394821 38 -0.000160714286 0 -0.000160714286"></polygon>
        <polygon id="path-7" points="0 29.7394821 38 29.7394821 38 -0.000160714286 0 -0.000160714286"></polygon>
        <polygon id="path-9" points="0 29.7394821 38 29.7394821 38 -0.000160714286 0 -0.000160714286"></polygon>
        <polygon id="path-11" points="0 29.7394821 38 29.7394821 38 -0.000160714286 0 -0.000160714286"></polygon>
        <polygon id="path-13" points="0 29.7394821 38 29.7394821 38 -0.000160714286 0 -0.000160714286"></polygon>
    </defs>
    <g id="Symbols" stroke="none" stroke-width="1" fill="none" fill-rule="evenodd">
        <g id="-Home-Tomorrow">
            <g>
                <g id="Group-3" transform="translate(10.704225, 8.310911)">
                    <g id="Fill-1-Clipped">
                        <mask id="mask-2" fill="white">
                            <use xlink:href="#path-1"></use>
                        </mask>
                        <g id="path-1"></g>
                        <path d="M24.6197183,9.09980357 L19.2676056,9.09980357 L19.2676056,3.20694643 L22.9857183,3.20694643 C22.9857183,3.20694643 24.7160563,5.89676786 24.7160563,8.99801786 L24.6197183,9.09980357 Z M22.1630986,19.7819464 C20.9476338,19.7819464 19.9596338,18.7919464 19.9596338,17.5753393 C19.9596338,16.3592679 20.9476338,15.3703393 22.1630986,15.3703393 C23.3780282,15.3703393 24.3660282,16.3592679 24.3660282,17.5753393 C24.3660282,18.7919464 23.3780282,19.7819464 22.1630986,19.7819464 Z M5.9563662,19.7819464 C4.74143662,19.7819464 3.75343662,18.7930179 3.75343662,17.5764107 C3.75343662,16.3603393 4.74143662,15.3703393 5.9563662,15.3703393 C7.1723662,15.3703393 8.16090141,16.3603393 8.16090141,17.5764107 C8.16090141,18.7930179 7.1723662,19.7819464 5.9563662,19.7819464 Z M23.5492958,1.59980357 L19.2676056,1.59980357 L19.2676056,0.528375 L0,0.528375 L0,17.1355179 L2.08785915,17.1355179 C2.07447887,17.1355179 2.04878873,17.4580179 2.04878873,17.590875 C2.04878873,19.7476607 3.80107042,21.4287321 5.9563662,21.4287321 C8.11166197,21.4287321 9.67233803,19.7514107 9.67233803,17.5940893 C9.67233803,17.4612321 9.64664789,17.1355179 9.63380282,17.1355179 L14.5170704,17.1355179 L17.9049577,17.1355179 L18.2940563,17.1355179 C18.2806761,17.1355179 18.2549859,17.4574821 18.2549859,17.5898036 C18.2549859,19.7465893 20.008338,21.4287321 22.1630986,21.4287321 C24.3178592,21.4287321 26.0706761,19.7364107 26.0706761,17.5790893 C26.0706761,17.4467679 26.0455211,17.264625 26.0321408,17.1355179 L27.2957746,17.1355179 L27.2957746,9.09980357 L26.3377465,9.09980357 C25.6901408,3.74266071 23.5492958,1.59980357 23.5492958,1.59980357 Z" id="Fill-1" fill="#232323" fill-rule="nonzero" mask="url(#mask-2)"></path>
                    </g>
                </g>
                <g id="Fill-4-Clipped">
                    <mask id="mask-4" fill="white">
                        <use xlink:href="#path-3"></use>
                    </mask>
                    <g id="path-3"></g>
                    <polygon id="Fill-4" fill="#232323" fill-rule="nonzero" mask="url(#mask-4)" points="0 21.1605536 8.56338028 21.1605536 8.56338028 19.0176964 0 19.0176964"></polygon>
                </g>
                <g id="Fill-6-Clipped">
                    <mask id="mask-6" fill="white">
                        <use xlink:href="#path-5"></use>
                    </mask>
                    <g id="path-3"></g>
                    <polygon id="Fill-6" fill="#232323" fill-rule="nonzero" mask="url(#mask-6)" points="3.21126761 25.4462679 8.56338028 25.4462679 8.56338028 23.3034107 3.21126761 23.3034107"></polygon>
                </g>
                <g id="Fill-7-Clipped">
                    <mask id="mask-8" fill="white">
                        <use xlink:href="#path-7"></use>
                    </mask>
                    <g id="path-3"></g>
                    <path d="M20.8732394,8.83928571 C20.8732394,13.2771429 17.2787606,16.875 12.8450704,16.875 C8.41138028,16.875 4.81690141,13.2771429 4.81690141,8.83928571 C4.81690141,4.40142857 8.41138028,0.803571429 12.8450704,0.803571429 C17.2787606,0.803571429 20.8732394,4.40142857 20.8732394,8.83928571" id="Fill-7" fill="#FFFFFF" fill-rule="nonzero" mask="url(#mask-8)"></path>
                </g>
                <g id="Fill-8-Clipped">
                    <mask id="mask-10" fill="white">
                        <use xlink:href="#path-9"></use>
                    </mask>
                    <g id="path-3"></g>
                    <path d="M12.8450704,1.60714286 C8.86095775,1.60714286 5.61971831,4.85142857 5.61971831,8.83928571 C5.61971831,12.8271429 8.86095775,16.0714286 12.8450704,16.0714286 C16.8291831,16.0714286 20.0704225,12.8271429 20.0704225,8.83928571 C20.0704225,4.85142857 16.8291831,1.60714286 12.8450704,1.60714286 M12.8450704,17.6785714 C7.97571831,17.6785714 4.01408451,13.7132143 4.01408451,8.83928571 C4.01408451,3.96535714 7.97571831,0 12.8450704,0 C17.7144225,0 21.6760563,3.96535714 21.6760563,8.83928571 C21.6760563,13.7132143 17.7144225,17.6785714 12.8450704,17.6785714" id="Fill-8" fill="#232323" fill-rule="nonzero" mask="url(#mask-10)"></path>
                </g>
                <g id="Fill-9-Clipped">
                    <mask id="mask-12" fill="white">
                        <use xlink:href="#path-11"></use>
                    </mask>
                    <g id="path-3"></g>
                    <polyline id="Fill-9" fill="#FFFFFF" fill-rule="nonzero" mask="url(#mask-12)" points="12.8450704 3.48214286 12.8450704 9.375 9.5 12.7232143"></polyline>
                </g>
                <g id="Fill-10-Clipped">
                    <mask id="mask-14" fill="white">
                        <use xlink:href="#path-13"></use>
                    </mask>
                    <g id="path-3"></g>
                    <polygon id="Fill-10" fill="#232323" fill-rule="nonzero" mask="url(#mask-14)" points="10.3351972 13.2913393 9.20001408 12.1550893 12.3095915 9.04205357 12.3095915 3.481875 13.9152254 3.481875 13.9152254 9.70794643"></polygon>
                </g>
            </g>
        </g>
    </g>
</svg>