<?xml version="1.0" encoding="UTF-8"?>
<svg width="37px" height="28px" viewBox="0 0 37 28" version="1.1" xmlns="http://www.w3.org/2000/svg" xmlns:xlink="http://www.w3.org/1999/xlink">
    <!-- Generator: Sketch 48.2 (47327) - http://www.bohemiancoding.com/sketch -->
    <title>Home Delivery</title>
    <desc>Created with Sketch.</desc>
    <defs>
        <polygon id="path-1" points="37 13.879874 37 27.7597481 0 27.7597481 0 13.879874 0 0 37 0"></polygon>
    </defs>
    <g id="Symbols" stroke="none" stroke-width="1" fill="none" fill-rule="evenodd">
        <g id="Home-Delivery">
            <g id="home-delivery">
                <mask id="mask-2" fill="white">
                    <use xlink:href="#path-1"></use>
                </mask>
                <g id="path-1"></g>
                <path d="M33.372549,11.3846154 L26.1176471,11.3846154 L26.1176471,3.55769231 L31.1576275,3.55769231 C31.1576275,3.55769231 33.5031373,7.13032692 33.5031373,11.2494231 L33.372549,11.3846154 Z M30.042549,25.5726923 C28.3949608,25.5726923 27.0557059,24.2577692 27.0557059,22.6418654 C27.0557059,21.0266731 28.3949608,19.7131731 30.042549,19.7131731 C31.6894118,19.7131731 33.0286667,21.0266731 33.0286667,22.6418654 C33.0286667,24.2577692 31.6894118,25.5726923 30.042549,25.5726923 Z M8.07398039,25.5726923 C6.42711765,25.5726923 5.08786275,24.2591923 5.08786275,22.6432885 C5.08786275,21.0280962 6.42711765,19.7131731 8.07398039,19.7131731 C9.72229412,19.7131731 11.0622745,21.0280962 11.0622745,22.6432885 C11.0622745,24.2591923 9.72229412,25.5726923 8.07398039,25.5726923 Z M31.9215686,1.42307692 L26.1176471,1.42307692 L26.1176471,0 L0,0 L0,22.0576923 L2.83013725,22.0576923 C2.812,22.0576923 2.77717647,22.4860385 2.77717647,22.6625 C2.77717647,25.5271538 5.15243137,27.7599615 8.07398039,27.7599615 C10.9955294,27.7599615 13.1110588,25.5321346 13.1110588,22.6667692 C13.1110588,22.4903077 13.0762353,22.0576923 13.0588235,22.0576923 L19.6781961,22.0576923 L24.270549,22.0576923 L24.7979804,22.0576923 C24.7798431,22.0576923 24.7450196,22.4853269 24.7450196,22.6610769 C24.7450196,25.5257308 27.1217255,27.7599615 30.042549,27.7599615 C32.9633725,27.7599615 35.3393529,25.5122115 35.3393529,22.6468462 C35.3393529,22.4710962 35.3052549,22.2291731 35.2871176,22.0576923 L37,22.0576923 L37,11.3846154 L35.7013725,11.3846154 C34.8235294,4.26923077 31.9215686,1.42307692 31.9215686,1.42307692 Z" id="Fill-1" fill="#232323" fill-rule="nonzero" mask="url(#mask-2)"></path>
            </g>
        </g>
    </g>
</svg>