<svg width="17px" height="17px" viewBox="0 0 17 17" version="1.1" xmlns="http://www.w3.org/2000/svg" xmlns:xlink="http://www.w3.org/1999/xlink">
    <!-- Generator: Sketch 50.2 (55047) - http://www.bohemiancoding.com/sketch -->
    <title>HTML Icon</title>
    <desc>Created with Sketch.</desc>
    <defs></defs>
    <g id="HTML-Icon" stroke="none" stroke-width="1" fill="none" fill-rule="evenodd">
        <rect id="Rectangle-10" stroke="#020303" x="0.5" y="0.5" width="16" height="16" rx="2"></rect>
        <path d="M5.628,10 L5.068,10 L5.068,8.824 L3.92,8.824 L3.92,10 L3.36,10 L3.36,7.2 L3.92,7.2 L3.92,8.272 L5.068,8.272 L5.068,7.2 L5.628,7.2 L5.628,10 Z M8.336,7.752 L7.532,7.752 L7.532,10 L6.972,10 L6.972,7.752 L6.168,7.752 L6.168,7.2 L8.336,7.2 L8.336,7.752 Z M11.496,10 L10.936,10 L10.936,8.972 C10.936,8.82 10.944,8.464 10.944,8.356 C10.904,8.46 10.82,8.66 10.748,8.82 L10.18,10.064 L9.612,8.82 C9.54,8.66 9.456,8.46 9.416,8.356 C9.416,8.464 9.424,8.82 9.424,8.972 L9.424,10 L8.876,10 L8.876,7.2 L9.416,7.2 L10,8.468 C10.072,8.624 10.156,8.836 10.192,8.936 C10.228,8.832 10.308,8.628 10.38,8.468 L10.944,7.2 L11.496,7.2 L11.496,10 Z M14.18,10 L12.216,10 L12.216,7.2 L12.776,7.2 L12.776,9.448 L14.18,9.448 L14.18,10 Z" id="HTML" fill="#000000"></path>
    </g>
</svg>
