<?xml version="1.0" encoding="utf-8"?>
<!-- Generator: Adobe Illustrator 22.1.0, SVG Export Plug-In . SVG Version: 6.00 Build 0)  -->
<svg version="1.1" id="Layer_1" xmlns="http://www.w3.org/2000/svg" xmlns:xlink="http://www.w3.org/1999/xlink" x="0px" y="0px"
	 viewBox="0 0 30 30" style="enable-background:new 0 0 30 30;" xml:space="preserve">
<style type="text/css">
	.st0{filter:url(#Adobe_OpacityMaskFilter);}
	.st1{fill:#FFFFFF;}
	.st2{mask:url(#mask-2_1_);}
	.st3{filter:url(#Adobe_OpacityMaskFilter_1_);}
	.st4{mask:url(#mask-4_1_);}
</style>
<title>Image Map Icon</title>
<desc>Created with Sketch.</desc>
<g id="Symbols">
	<g id="Image-Map-Icon">
		<g id="Page-1">
			<g id="Group-3" transform="translate(0.000000, 6.921019)">
				<g id="Clip-2">
				</g>
				<defs>
					<filter id="Adobe_OpacityMaskFilter" filterUnits="userSpaceOnUse" x="0" y="0" width="30" height="23.1">
						<feColorMatrix  type="matrix" values="1 0 0 0 0  0 1 0 0 0  0 0 1 0 0  0 0 0 1 0"/>
					</filter>
				</defs>
				<mask maskUnits="userSpaceOnUse" x="0" y="0" width="30" height="23.1" id="mask-2_1_">
					<g class="st0">
						<polygon id="path-1_1_" class="st1" points="0,0 30,0 30,23.1 0,23.1 						"/>
					</g>
				</mask>
				<path id="Fill-1" class="st2" d="M27,20.1V9.3c-0.9,0.2-1.8,0.4-2.7,0.6c-0.2-0.6-0.4-1.2-0.7-1.8c1.1-0.4,2.2-0.6,3.4-0.8V2.9
					h-6.4c0.4-1,0.7-2,1-3c1.1,0,2.1,0,3.2,0c1,0,2.1,0,3.1,0c1.3,0,2,0.8,2,2c0,6.4,0,12.7,0,19.1c0,1.3-0.8,2-2,2
					c-8.6,0-17.3,0-25.9,0c-1.3,0-2.1-0.8-2.1-2C0,14.7,0,8.4,0,2c0-1,0.5-1.8,1.3-2C1.5,0,1.7,0,2,0c1.2,0,2.5,0,3.7,0
					C5.8,0,5.9,0,5.9,0.1C6.3,1,6.6,1.9,6.9,2.9H2.9v0.4c0,2.3,0,4.6,0,6.8c0,0.2,0.1,0.4,0.2,0.5C4,11.5,5,12.4,5.9,13.3
					c0.1,0.1,0.1,0.1,0.2,0.2c-0.4,0.5-0.8,1-1.3,1.5c-0.6-0.6-1.2-1.1-1.9-1.7v6.8H27z"/>
			</g>
			<g id="Group-6" transform="translate(7.796258, 0.060312)">
				<g id="Clip-5">
				</g>
				<defs>
					<filter id="Adobe_OpacityMaskFilter_1_" filterUnits="userSpaceOnUse" x="0.1" y="-0.1" width="11.8" height="17.7">
						<feColorMatrix  type="matrix" values="1 0 0 0 0  0 1 0 0 0  0 0 1 0 0  0 0 0 1 0"/>
					</filter>
				</defs>
				<mask maskUnits="userSpaceOnUse" x="0.1" y="-0.1" width="11.8" height="17.7" id="mask-4_1_">
					<g class="st3">
						<polygon id="path-3_1_" class="st1" points="0.1,-0.1 11.9,-0.1 11.9,17.6 0.1,17.6 						"/>
					</g>
				</mask>
				<path id="Fill-4" class="st4" d="M8.9,5.8c0-1.6-1.4-2.9-3-2.9c-1.7,0-3,1.4-2.9,3c0,1.6,1.4,2.9,3,2.9C7.7,8.8,9,7.4,8.9,5.8
					 M6,17.6c-0.4-0.7-0.8-1.4-1.2-2.1C3.4,13.2,2,10.8,0.9,8.3c-0.1-0.3-0.3-0.7-0.4-1c-0.6-1.3-0.4-2.7,0.2-4
					C1.7,0.9,4.2-0.4,6.9,0c2.5,0.4,4.5,2.4,4.9,5c0.1,0.8,0,1.6-0.4,2.3c-0.8,1.7-1.6,3.5-2.6,5.2c-0.9,1.6-1.8,3.2-2.8,4.8
					C6.1,17.4,6,17.5,6,17.6"/>
			</g>
			<path id="Fill-7" d="M13.7,25.1c-0.2-0.6-0.4-1.2-0.6-1.9c1.5-0.4,2.8-1,4-2c0.4,0.5,0.8,1,1.3,1.5C17,24,15.5,24.7,13.7,25.1"/>
			<path id="Fill-9" d="M11.6,23.4c-0.1,0.7-0.2,1.3-0.2,1.9c-1,0.1-3.9-1.2-4.9-2.1c0.4-0.5,0.7-1,1.1-1.6
				C8.8,22.4,10.1,23.1,11.6,23.4"/>
			<path id="Fill-11" d="M22.8,17.7c-1.4,0.8-2.1,2.1-2.9,3.4c-0.6-0.4-1.1-0.8-1.6-1.1c0.8-1.6,1.8-3,3.4-4
				C22.1,16.6,22.4,17.2,22.8,17.7"/>
		</g>
	</g>
</g>
</svg>
