<?xml version="1.0" encoding="UTF-8"?>
<svg width="22px" height="22px" viewBox="0 0 22 22" version="1.1" xmlns="http://www.w3.org/2000/svg" xmlns:xlink="http://www.w3.org/1999/xlink">
    <!-- Generator: Sketch 48.2 (47327) - http://www.bohemiancoding.com/sketch -->
    <title>Info</title>
    <desc>Created with Sketch.</desc>
    <defs></defs>
    <g id="Symbols" stroke="none" stroke-width="1" fill="none" fill-rule="evenodd">
        <g id="Info" fill="#232323" fill-rule="nonzero">
            <g id="info">
                <path d="M11.0084624,0.0253855 C4.94153934,0.0253855 0.0253855,4.94153934 0.0253855,11.0084624 C0.0253855,17.0753855 4.94153934,21.9915394 11.0084624,21.9915394 C17.0753855,21.9915394 21.9915394,17.0753855 21.9915394,11.0084624 C21.9915394,4.94153934 17.0753855,0.0253855 11.0084624,0.0253855 Z M10.0480778,6.32923165 L11.9773086,6.34192396 L11.9773086,12.1592317 L10.0480778,12.1592317 L10.0480778,6.32923165 Z M11.0211547,15.6876932 C10.3780778,15.6876932 9.85346242,15.1630778 9.85346242,14.5326932 C9.85346242,13.8896163 10.3780778,13.3776932 11.0211547,13.3776932 C11.6515394,13.3776932 12.1634624,13.8896163 12.1634624,14.5326932 C12.1634624,15.1630778 11.6515394,15.6876932 11.0211547,15.6876932 Z" id="Shape" transform="translate(11.008462, 11.008462) rotate(180.000000) translate(-11.008462, -11.008462) "></path>
            </g>
        </g>
    </g>
</svg>