<?xml version="1.0" encoding="UTF-8"?>
<svg width="40px" height="40px" viewBox="0 0 40 40" version="1.1" xmlns="http://www.w3.org/2000/svg" xmlns:xlink="http://www.w3.org/1999/xlink">
    <!-- Generator: Sketch 48.2 (47327) - http://www.bohemiancoding.com/sketch -->
    <title>Instagram_Icon</title>
    <desc>Created with Sketch.</desc>
    <defs></defs>
    <g id="Symbols" stroke="none" stroke-width="1" fill="none" fill-rule="evenodd">
        <g id="Instagram_Icon" fill-rule="nonzero">
            <g>
                <path d="M19.980198,1.2345679 C30.3663366,1.2345679 38.8316832,9.67901235 38.8316832,20.0395062 C38.8316832,30.4 30.3663366,38.8444444 19.980198,38.8444444 C9.59405941,38.8444444 1.12871287,30.4 1.12871287,20.0395062 C1.12871287,9.65925926 9.58415842,1.2345679 19.980198,1.2345679 Z M19.980198,0.0888888889 C8.93069307,0.0888888889 0,9.02716049 0,20.0197531 C0,31.0123457 8.95049505,39.9506173 19.980198,39.9506173 C31.009901,39.9506173 39.950495,31.0123457 39.950495,20.0197531 C39.950495,9.02716049 31.019802,0.0888888889 19.980198,0.0888888889 Z" id="Shape" fill="#C8C8C8"></path>
                <g id="Group" transform="translate(11.386139, 11.456790)" fill="#232323">
                    <path d="M0.0198019802,11.9802469 L0.0198019802,5.14567901 C0.0495049505,4.94814815 0.0891089109,4.76049383 0.099009901,4.56296296 C0.227722772,2.36049383 1.63366337,0.691358025 3.77227723,0.227160494 C4.22772277,0.128395062 4.69306931,0.0888888889 5.15841584,0.0197530864 L12.009901,0.0197530864 C12.2079208,0.049382716 12.3960396,0.0888888889 12.5940594,0.0987654321 C14.7722772,0.227160494 16.4059406,1.56049383 16.9108911,3.68395062 C17.029703,4.18765432 17.0693069,4.71111111 17.1485149,5.22469136 L17.1485149,11.8024691 C17.1188119,12.0493827 17.0792079,12.3061728 17.0594059,12.5530864 C16.9306931,14.7259259 15.5940594,16.3555556 13.4752475,16.8592593 C12.9405941,16.9876543 12.3861386,17.017284 11.8415842,17.0962963 L5.24752475,17.0962963 C5.01980198,17.0666667 4.8019802,17.0271605 4.57425743,17.0074074 C2.35643564,16.8790123 0.663366337,15.4567901 0.217821782,13.3037037 C0.128712871,12.8790123 0.0891089109,12.4246914 0.0198019802,11.9802469 Z M8.53465347,15.4864198 C9.8019802,15.4864198 11.0792079,15.5160494 12.3465347,15.4765432 C13.2871287,15.4469136 14.1386139,15.1506173 14.7722772,14.4 C15.2970297,13.7876543 15.5148515,13.0469136 15.5247525,12.2666667 C15.5445545,9.81728395 15.5742574,7.36790123 15.5247525,4.92839506 C15.4851485,2.87407407 14.3069307,1.70864198 12.2475248,1.63950617 C10.1485149,1.58024691 8.04950495,1.57037037 5.96039604,1.58024691 C5.31683168,1.58024691 4.67326733,1.62962963 4.04950495,1.75802469 C2.6039604,2.05432099 1.69306931,3.18024691 1.66336634,4.79012346 C1.61386139,7.27901235 1.6039604,9.76790123 1.66336634,12.2567901 C1.7029703,14.2518519 2.91089109,15.417284 4.91089109,15.4765432 C6.10891089,15.5259259 7.32673267,15.4864198 8.53465347,15.4864198 Z" id="Shape"></path>
                    <path d="M4.1980198,8.54320988 C4.20792079,6.09382716 6.16831683,4.16790123 8.62376238,4.17777778 C11.0792079,4.19753086 13.009901,6.15308642 12.980198,8.60246914 C12.950495,11.0320988 11.009901,12.9481481 8.57425743,12.9382716 C6.11881188,12.9382716 4.17821782,10.982716 4.1980198,8.54320988 Z M8.57425743,11.3876543 C10.1683168,11.3876543 11.4257426,10.1432099 11.4257426,8.56296296 C11.4257426,6.99259259 10.1881188,5.7382716 8.62376238,5.72839506 C7.01980198,5.71851852 5.76237624,6.95308642 5.75247525,8.53333333 C5.74257426,10.1234568 6.98019802,11.3876543 8.57425743,11.3876543 Z" id="Shape"></path>
                    <path d="M14.1782178,3.99012346 C14.1881188,4.56296296 13.7326733,5.02716049 13.1683168,5.03703704 C12.6138614,5.04691358 12.1287129,4.57283951 12.1188119,4.01975309 C12.1089109,3.46666667 12.5643564,2.99259259 13.1386139,2.98271605 C13.7326733,2.97283951 14.1683168,3.39753086 14.1782178,3.99012346 Z" id="Shape"></path>
                </g>
            </g>
        </g>
    </g>
</svg>