<?xml version="1.0" encoding="UTF-8"?>
<svg width="68px" height="62px" viewBox="0 0 68 62" version="1.1" xmlns="http://www.w3.org/2000/svg" xmlns:xlink="http://www.w3.org/1999/xlink">
    <!-- Generator: Sketch 48.2 (47327) - http://www.bohemiancoding.com/sketch -->
    <title>Lightbox Icon</title>
    <desc>Created with Sketch.</desc>
    <defs></defs>
    <g id="Symbols" stroke="none" stroke-width="1" fill="none" fill-rule="evenodd">
        <g id="Lightbox-Icon" fill="#000000">
            <g id="noun_822176_cc">
                <path d="M35.195369,62 L3.828427,62 L19.511898,46.316529 L35.195369,62 Z M65.975187,61.803614 C66.0449,61.932277 66.05532,62 66,62 L40.852223,62 L29.750647,50.898424 L42.410322,38.238749 L65.975187,61.803614 Z M68,58.171573 L68,20 C68,18.895431 67.104569,18 66,18 L2,18 C0.895431,18 0,18.895431 0,20 L0,60 C0,60.055515 0.002262,60.110503 0.006699,60.164874 L18.097684,42.073888 C18.878733,41.29284 20.145063,41.29284 20.926112,42.073888 L26.92222,48.069997 L40.996108,33.996108 C41.777157,33.21506 43.043487,33.21506 43.824535,33.996108 L68,58.171573 Z M19,32 C21.761424,32 24,29.761424 24,27 C24,24.238576 21.761424,22 19,22 C16.238576,22 14,24.238576 14,27 C14,29.761424 16.238576,32 19,32 Z M63,7.828427 L61.120791,9.707636 C60.730559,10.097868 60.100716,10.100716 59.700482,9.700482 L58.299518,8.299518 C57.905335,7.905335 57.902855,7.268718 58.292364,6.879209 L60.171573,5 L58.292364,3.120791 C57.902132,2.730559 57.899284,2.100716 58.299518,1.700482 L59.700482,0.299518 C60.094665,-0.094665 60.731282,-0.097145 61.120791,0.292364 L63,2.171573 L64.879209,0.292364 C65.269441,-0.097868 65.899284,-0.100716 66.299518,0.299518 L67.700482,1.700482 C68.094665,2.094665 68.097145,2.731282 67.707636,3.120791 L65.828427,5 L67.707636,6.879209 C68.097868,7.269441 68.100716,7.899284 67.700482,8.299518 L66.299518,9.700482 C65.905335,10.094665 65.268718,10.097145 64.879209,9.707636 L63,7.828427 Z" id="Shape"></path>
            </g>
        </g>
    </g>
</svg>