<?xml version="1.0" encoding="UTF-8"?>
<svg width="40px" height="40px" viewBox="0 0 40 40" version="1.1" xmlns="http://www.w3.org/2000/svg" xmlns:xlink="http://www.w3.org/1999/xlink">
    <!-- Generator: Sketch 48.2 (47327) - http://www.bohemiancoding.com/sketch -->
    <title>Pinterest_Icon</title>
    <desc>Created with Sketch.</desc>
    <defs></defs>
    <g id="Symbols" stroke="none" stroke-width="1" fill="none" fill-rule="evenodd">
        <g id="Pinterest_Icon" fill-rule="nonzero">
            <g id="Shape">
                <path d="M20,1.35672515 C30.3391813,1.35672515 38.7602339,9.77777778 38.7602339,20.1169591 C38.7602339,30.4561404 30.3391813,38.877193 20,38.877193 C9.66081871,38.877193 1.23976608,30.4561404 1.23976608,20.1169591 C1.23976608,9.75438596 9.66081871,1.35672515 20,1.35672515 Z M20,0.210526316 C9.00584795,0.210526316 0.116959064,9.12280702 0.116959064,20.0935673 C0.116959064,31.0643275 9.02923977,39.9766082 20,39.9766082 C30.9707602,39.9766082 39.8830409,31.0643275 39.8830409,20.0935673 C39.8830409,9.12280702 30.994152,0.210526316 20,0.210526316 Z" fill="#C8C8C8"></path>
                <path d="M16.0935673,27.8128655 C16.0701754,27.0877193 16.0935673,26.245614 16.2807018,25.4736842 C16.4678363,24.6315789 17.5906433,19.8830409 17.5906433,19.8830409 C17.5906433,19.8830409 17.2631579,19.2280702 17.2631579,18.2690058 C17.2631579,16.748538 18.1520468,15.625731 19.2280702,15.625731 C20.1637427,15.625731 20.6081871,16.3274854 20.6081871,17.1695906 C20.6081871,18.1052632 20,19.5087719 19.6959064,20.7953216 C19.4385965,21.871345 20.2339181,22.7602339 21.3099415,22.7602339 C23.251462,22.7602339 24.5614035,20.2807018 24.5614035,17.3333333 C24.5614035,15.0877193 23.0409357,13.4035088 20.3040936,13.4035088 C17.1929825,13.4035088 15.2748538,15.7192982 15.2748538,18.3157895 C15.2748538,19.2046784 15.5321637,19.8362573 15.9532164,20.3274854 C16.1403509,20.5614035 16.1637427,20.6315789 16.0935673,20.8888889 C16.0467836,21.0760234 15.9298246,21.5204678 15.8830409,21.7076023 C15.8128655,21.9649123 15.6023392,22.0584795 15.3684211,21.9649123 C13.9415205,21.380117 13.2631579,19.8128655 13.2631579,18.0584795 C13.2631579,15.1578947 15.7192982,11.6725146 20.5847953,11.6725146 C24.4912281,11.6725146 27.0643275,14.502924 27.0643275,17.5438596 C27.0643275,21.5672515 24.8187135,24.5614035 21.5438596,24.5614035 C20.4444444,24.5614035 19.3918129,23.9766082 19.0409357,23.2982456 C19.0409357,23.2982456 18.4561404,25.6608187 18.3157895,26.1052632 C18.1052632,26.9005848 17.6842105,27.6959064 17.2865497,28.3040936 C17.2865497,28.2573099 16.3508772,29.380117 16.0935673,27.8128655 Z" fill="#232323"></path>
            </g>
        </g>
    </g>
</svg>