<?xml version="1.0" encoding="UTF-8"?>
<svg width="45px" height="28px" viewBox="0 0 45 28" version="1.1" xmlns="http://www.w3.org/2000/svg" xmlns:xlink="http://www.w3.org/1999/xlink">
    <!-- Generator: Sketch 48.2 (47327) - http://www.bohemiancoding.com/sketch -->
    <title>Preview</title>
    <desc>Created with Sketch.</desc>
    <defs>
        <rect id="path-1" x="0" y="0" width="45" height="28"></rect>
    </defs>
    <g id="Symbols" stroke="none" stroke-width="1" fill="none" fill-rule="evenodd">
        <g id="Preview">
            <g id="Rectangle-8">
                <use fill="#D8D8D8" fill-rule="evenodd" xlink:href="#path-1"></use>
                <rect stroke="#979797" stroke-width="1" x="0.5" y="0.5" width="44" height="27"></rect>
            </g>
            <g id="BG-Image-Icon" transform="translate(17.000000, 9.000000)" fill="#010002">
                <g id="image">
                    <path d="M8.86339679,0.0117081846 L1.13024124,0.0117081846 C0.506897488,0.0117081846 0,0.518438413 0,1.1425181 L0,8.24975411 C0,8.87309786 0.506897488,9.37929286 1.13024124,9.37929286 L8.86336334,9.37929286 C9.48670709,9.37929286 9.99306935,8.87309786 9.99306935,8.24975411 L9.99306935,1.1425181 C9.9931028,0.518438413 9.48674054,0.0117081846 8.86339679,0.0117081846 Z M6.46204814,1.69343837 C7.06485238,1.69343837 7.55371927,2.1823387 7.55371927,2.7851095 C7.55371927,3.38788029 7.06481893,3.87678063 6.46204814,3.87678063 C5.85907663,3.87678063 5.37037701,3.38788029 5.37037701,2.7851095 C5.37037701,2.1823387 5.85907663,1.69343837 6.46204814,1.69343837 Z M8.50893987,8.33452137 L4.99645104,8.33452137 L1.64045047,8.33452137 C1.33894799,8.33452137 1.20467184,8.11638117 1.34058713,7.84726018 L3.21409738,4.13643471 C3.34984542,3.86734717 3.60856284,3.84332867 3.79177921,4.08274432 L5.67565956,6.54467447 C5.85887592,6.78412357 6.17911149,6.80449581 6.39106309,6.58996842 L6.85193068,6.12328018 C7.06371502,5.90875279 7.37575486,5.93531364 7.54860112,6.18222252 L8.74199965,7.88690075 C8.91451138,8.13417761 8.81044235,8.33452137 8.50893987,8.33452137 Z" id="Shape" fill-rule="nonzero"></path>
                </g>
            </g>
        </g>
    </g>
</svg>