<?xml version="1.0" encoding="UTF-8"?>
<svg width="33px" height="34px" viewBox="0 0 33 34" version="1.1" xmlns="http://www.w3.org/2000/svg" xmlns:xlink="http://www.w3.org/1999/xlink">
    <!-- Generator: Sketch 48.2 (47327) - http://www.bohemiancoding.com/sketch -->
    <title>Quick View</title>
    <desc>Created with Sketch.</desc>
    <defs></defs>
    <g id="Symbols" stroke="none" stroke-width="1" fill="none" fill-rule="evenodd">
        <g id="Quick-View" fill="#666666" fill-rule="nonzero" stroke="#666666" stroke-width="1.45098039">
            <g id="Shape">
                <path d="M24.1177714,22.0644843 C28.4449218,16.4874141 27.7899558,8.49062051 22.6141145,3.70561551 C17.4382731,-1.0793895 9.48420071,-1.04155151 4.35332414,3.79248315 C-0.777552429,8.62651781 -1.35772794,16.6291871 3.02136953,22.1648411 C7.40046701,27.7004951 15.2644473,28.9053449 21.0753284,24.9309097 L30.0615129,34 L33,31.0356967 L24.1177714,22.0644843 Z M13.5142685,27.2659977 C6.05054408,27.2659977 9.23313969e-16,21.1622962 0,13.6329988 C-9.23313969e-16,6.10370149 6.05054408,1.3971387e-15 13.5142685,0 C20.9779928,-1.3971387e-15 27.0285369,6.10370149 27.0285369,13.6329988 C27.0285369,21.1622962 20.9779928,27.2659977 13.5142685,27.2659977 Z"></path>
            </g>
        </g>
    </g>
</svg>