<?xml version="1.0" encoding="UTF-8"?>
<svg width="22px" height="23px" viewBox="0 0 22 23" version="1.1" xmlns="http://www.w3.org/2000/svg" xmlns:xlink="http://www.w3.org/1999/xlink">
    <!-- Generator: Sketch 48.2 (47327) - http://www.bohemiancoding.com/sketch -->
    <title>Search Icon</title>
    <desc>Created with Sketch.</desc>
    <defs></defs>
    <g id="Symbols" stroke="none" stroke-width="1" fill="none" fill-rule="evenodd">
        <g id="Search-Icon" fill="#232323" fill-rule="nonzero">
            <g id="search">
                <path d="M17.3985,16.1281111 C18.71,14.4302 19.5,12.2927333 19.5,9.96666667 C19.5,4.47068889 15.126,0 9.75,0 C4.374,0 0,4.47068889 0,9.96666667 C0,15.4626444 4.374,19.9333333 9.75,19.9333333 C11.7695,19.9333333 13.6475,19.3021111 15.2055,18.2231556 L19.4395,22.5512444 C19.732,22.8507556 20.116,23 20.5,23 C20.884,23 21.268,22.8502444 21.5605,22.5507333 C22.1465,21.9522222 22.1465,20.9811111 21.5605,20.3826 L17.3985,16.1281111 Z M2,9.96666667 C2,5.5982 5.4765,2.04444444 9.75,2.04444444 C14.0235,2.04444444 17.5,5.5982 17.5,9.96666667 C17.5,12.1434889 16.636,14.1174 15.241,15.5510667 C15.134,15.6154667 15.0315,15.6895778 14.9395,15.7831111 C14.8795,15.8444444 14.83,15.9114 14.7825,15.9798889 C13.427,17.1666889 11.6705,17.8888889 9.75,17.8888889 C5.4765,17.8888889 2,14.3346222 2,9.96666667 Z" id="Shape"></path>
            </g>
        </g>
    </g>
</svg>