<?xml version="1.0" encoding="UTF-8"?>
<svg width="20px" height="13px" viewBox="0 0 20 13" version="1.1" xmlns="http://www.w3.org/2000/svg" xmlns:xlink="http://www.w3.org/1999/xlink">
    <!-- Generator: Sketch 49.3 (51167) - http://www.bohemiancoding.com/sketch -->
    <desc>Created with Sketch.</desc>
    <defs>
        <polygon id="path-1" points="0 0.0226214689 19.935058 0.0226214689 19.935058 12.9265537 0 12.9265537"></polygon>
        <polygon id="path-3" points="0 12.9773785 19.935058 12.9773785 19.935058 0.0734463277 0 0.0734463277"></polygon>
    </defs>
    <g id="Page-1" stroke="none" stroke-width="1" fill="none" fill-rule="evenodd">
        <g id="Monty-Content-Builder-|-Carousel-Component" transform="translate(-544.000000, -377.000000)">
            <g id="Select-Dropdown-Icon" transform="translate(544.000000, 377.000000)">
                <g id="Page-1">
                    <g id="Group-3" transform="translate(0.000000, 0.050825)">
                        <mask id="mask-2" fill="white">
                            <use xlink:href="#path-1"></use>
                        </mask>
                        <g id="Clip-2"></g>
                        <path d="M16.4045138,1.77292825 C15.7520607,1.77292825 15.0990723,1.7619113 14.4474219,1.78041977 C14.2782872,1.78526723 14.0335058,1.84747627 13.9688314,1.94721638 C13.9065656,2.04313729 13.9837288,2.25253277 14.0832828,2.35910339 C14.7068332,3.02665706 15.3506334,3.68143107 15.9942551,4.33605819 C16.2704371,4.61691695 16.4728457,4.62073616 16.7429616,4.34648757 C17.3965745,3.68282655 18.0476896,3.01725593 18.6819447,2.34110904 C18.7744514,2.24247062 18.8427832,2.05305254 18.7882783,1.95757232 C18.7338626,1.86209209 18.5129884,1.78548757 18.3616057,1.78108079 C17.7099554,1.76227853 17.056967,1.77307514 16.4045138,1.77292825 Z M1.40308653,4.70468531 L12.7897948,4.70468531 L12.7897948,1.2038661 L1.40308653,1.2038661 L1.40308653,4.70468531 Z M1.41227475,11.7606006 L12.780785,11.7606006 L12.780785,5.91221638 L1.41227475,5.91221638 L1.41227475,11.7606006 Z M14.2371632,12.926561 L-3.56824264e-05,12.926561 L-3.56824264e-05,0.0225920904 L0.440642284,0.0226288136 C6.60683318,0.0226288136 12.7731133,0.0224819209 18.9393042,0.0227757062 C19.7237823,0.0227757062 19.9342194,0.198826554 19.9344871,0.85330678 C19.9350223,2.27243672 19.9355575,3.69149322 19.9342194,5.11054972 C19.9336842,5.68960056 19.7001427,5.8848209 19.0056735,5.88540847 C17.4328814,5.88680395 15.8600892,5.88584915 14.2371632,5.88584915 L14.2371632,12.926561 Z" id="Fill-1" fill="#000000" mask="url(#mask-2)"></path>
                    </g>
                    <mask id="mask-4" fill="white">
                        <use xlink:href="#path-3"></use>
                    </mask>
                    <g id="Clip-5"></g>
                    <polygon id="Fill-4" fill="#000000" mask="url(#mask-4)" points="2.85807315 8.27380226 11.3429973 8.27380226 11.3429973 7.1439774 2.85807315 7.1439774"></polygon>
                    <polygon id="Fill-6" fill="#000000" mask="url(#mask-4)" points="2.8544157 10.6140226 11.3544157 10.6140226 11.3544157 9.50424859 2.8544157 9.50424859"></polygon>
                </g>
            </g>
        </g>
    </g>
</svg>