<?xml version="1.0" encoding="UTF-8"?>
<svg width="26px" height="24px" viewBox="0 0 26 24" version="1.1" xmlns="http://www.w3.org/2000/svg" xmlns:xlink="http://www.w3.org/1999/xlink">
    <!-- Generator: Sketch 48.2 (47327) - http://www.bohemiancoding.com/sketch -->
    <title>Shopping bag empty</title>
    <desc>Created with Sketch.</desc>
    <defs></defs>
    <g id="Symbols" stroke="none" stroke-width="1" fill="none" fill-rule="evenodd">
        <g id="Shopping-bag-empty" fill="#232323" fill-rule="nonzero">
            <g id="shopping-bag-empty">
                <path d="M17.1178637,5.88962818 L17.1178637,4.74363992 C17.1178637,3.48023483 16.6486188,2.31545988 15.8633517,1.45596869 C15.0828729,0.591780822 13.9337017,0.0281800391 12.6600368,0.0281800391 C11.3959484,0.0281800391 10.2467772,0.596477495 9.45672192,1.45596869 C8.66666667,2.31545988 8.20220994,3.48493151 8.20220994,4.74363992 L8.20220994,5.88962818 L2.61915285,5.88962818 L0.0143646409,5.88962818 L0.0143646409,8.43522505 L0.0143646409,23.9906067 L26,23.9906067 L26,5.88962818 L17.1178637,5.88962818 Z M10.7926335,4.74363992 C10.7926335,4.10019569 11.027256,3.54598826 11.3815838,3.16555773 C11.7359116,2.77573386 12.1764273,2.57847358 12.6456722,2.57847358 C13.1149171,2.57847358 13.5554328,2.78043053 13.9097606,3.16555773 C14.2640884,3.5553816 14.4987109,4.10958904 14.4987109,4.74363992 L14.4987109,5.762818 L10.7782689,5.762818 L10.7782689,4.74363992 L10.7926335,4.74363992 Z M23.3952118,21.4450098 L2.60957643,21.4450098 L2.60957643,8.43052838 L23.4,8.43052838 L23.4,21.4450098 L23.3952118,21.4450098 Z" id="Shape"></path>
            </g>
        </g>
    </g>
</svg>