<?xml version="1.0" encoding="UTF-8"?>
<svg width="40px" height="40px" viewBox="0 0 40 40" version="1.1" xmlns="http://www.w3.org/2000/svg" xmlns:xlink="http://www.w3.org/1999/xlink">
    <!-- Generator: Sketch 48.2 (47327) - http://www.bohemiancoding.com/sketch -->
    <title>Snapchat_Icon</title>
    <desc>Created with Sketch.</desc>
    <defs></defs>
    <g id="Symbols" stroke="none" stroke-width="1" fill="none" fill-rule="evenodd">
        <g id="Snapchat_Icon" fill-rule="nonzero">
            <g id="Shape">
                <path d="M20,1.35672515 C30.3391813,1.35672515 38.7602339,9.77777778 38.7602339,20.1169591 C38.7602339,30.4561404 30.3391813,38.877193 20,38.877193 C9.66081871,38.877193 1.23976608,30.4561404 1.23976608,20.1169591 C1.23976608,9.75438596 9.66081871,1.35672515 20,1.35672515 Z M20,0.210526316 C9.00584795,0.210526316 0.116959064,9.12280702 0.116959064,20.0935673 C0.116959064,31.0643275 9.02923977,39.9766082 20,39.9766082 C30.9707602,39.9766082 39.8830409,31.0643275 39.8830409,20.0935673 C39.8830409,9.12280702 30.994152,0.210526316 20,0.210526316 Z" fill="#C8C8C8"></path>
                <path d="M20.374269,28.6549708 L19.6725146,28.6549708 C19.0643275,28.3976608 18.3625731,28.2339181 17.8479532,27.8596491 C16.748538,27.0877193 15.6023392,26.7134503 14.2923977,27.0409357 C13.9181287,27.1345029 13.6608187,26.9707602 13.6140351,26.5964912 C13.5204678,26.0350877 13.2163743,25.8479532 12.6783626,25.7309942 C12.0233918,25.5906433 11.2982456,25.497076 10.994152,24.7251462 L10.994152,24.6549708 C11.1812865,24.5380117 11.3684211,24.3508772 11.5789474,24.2807018 C13.0994152,23.8362573 14.1052632,22.8304094 14.8070175,21.4502924 C15.2046784,20.6783626 15.1111111,20.4912281 14.3157895,20.1637427 C13.8947368,20 13.4736842,19.8128655 13.0994152,19.5789474 C12.6783626,19.2982456 12.7017544,18.7836257 13.1695906,18.5263158 C13.4035088,18.4093567 13.7076023,18.4093567 13.9883041,18.4093567 C14.1754386,18.4093567 14.3625731,18.5263158 14.5497076,18.5730994 C14.994152,18.6900585 15.1578947,18.5730994 15.1578947,18.128655 C15.1578947,17.380117 15.1345029,16.6081871 15.1578947,15.8596491 C15.2046784,14.0818713 16.0701754,12.8187135 17.6842105,12.1169591 C18.2923977,11.8596491 18.9707602,11.7426901 19.625731,11.5555556 L20.6549708,11.5555556 C20.8888889,11.6023392 21.122807,11.6491228 21.380117,11.7192982 C23.251462,12.1403509 24.8654971,13.6842105 24.9824561,15.6725146 C25.0292398,16.4678363 24.9824561,17.2865497 24.9590643,18.0818713 C24.9590643,18.6432749 25.0760234,18.6900585 25.6140351,18.5497076 C25.9649123,18.4561404 26.3391813,18.4561404 26.6900585,18.4561404 C26.994152,18.4795322 27.2982456,18.6666667 27.2748538,18.9707602 C27.2748538,19.1812865 27.1111111,19.4619883 26.9239766,19.5789474 C26.5497076,19.8128655 26.128655,19.9766082 25.7309942,20.1403509 C25.0292398,20.4444444 24.9122807,20.7017544 25.2631579,21.380117 C25.9883041,22.8070175 27.0175439,23.8596491 28.6081871,24.2807018 C28.7719298,24.3274854 29.005848,24.4912281 29.0292398,24.6315789 C29.0760234,24.8888889 28.9356725,25.1461988 28.6549708,25.2397661 C28.2339181,25.380117 27.8362573,25.5906433 27.4152047,25.6842105 C26.9239766,25.8011696 26.5964912,25.9883041 26.502924,26.5497076 C26.4561404,26.9239766 26.1988304,27.0877193 25.8245614,26.994152 C25.7076023,26.9707602 25.5906433,26.9707602 25.4736842,26.9473684 C24.5380117,26.8070175 23.6491228,26.9005848 22.8538012,27.4619883 C22.0584795,28 21.2865497,28.4678363 20.374269,28.6549708 Z" fill="#232323"></path>
            </g>
        </g>
    </g>
</svg>