<?xml version="1.0" encoding="UTF-8"?>
<svg width="25px" height="24px" viewBox="0 0 25 24" version="1.1" xmlns="http://www.w3.org/2000/svg" xmlns:xlink="http://www.w3.org/1999/xlink">
    <!-- Generator: Sketch 48.2 (47327) - http://www.bohemiancoding.com/sketch -->
    <title> Store Tomorrow</title>
    <desc>Created with Sketch.</desc>
    <defs>
        <polygon id="path-1" points="24.9998333 4.0602442e-15 0 4.0602442e-15 0 23.9998857 24.9998333 23.9998857 24.9998333 0"></polygon>
    </defs>
    <g id="Symbols" stroke="none" stroke-width="1" fill="none" fill-rule="evenodd">
        <g id="-Store-Tomorrow">
            <g>
                <mask id="mask-2" fill="white">
                    <use xlink:href="#path-1"></use>
                </mask>
                <g id="path-1"></g>
                <path d="M10.3892778,20.0958857 L5.84483333,15.3044571 L8.19538889,15.3347429 L10.5053889,17.5804571 L17.4326111,9.71417143 L19.5670556,9.71417143 L10.3892778,20.0958857 Z M10.5553889,4.71417143 L10.5553889,4.64274286 C10.5553889,4.07131429 10.8887222,3.48331429 11.2276111,3.10217143 C11.4592778,2.83531429 11.9531667,2.61874286 12.3265,2.53417143 C12.4981667,2.49531429 12.5709444,2.54331429 12.7126111,2.54331429 C13.1609444,2.54331429 13.5626111,2.75131429 13.9009444,3.13702857 C14.2392778,3.52731429 14.4442778,4.08788571 14.4442778,4.72274286 L14.4442778,5.71417143 L10.5553889,5.71417143 L10.5553889,4.71417143 Z M16.6665,5.71417143 L16.6665,4.72274286 C16.6665,3.4576 16.3770556,2.29074286 15.6270556,1.43017143 C14.8815,0.564457143 13.8637222,-0.000114285714 12.6470556,-0.000114285714 C11.4398333,-0.000114285714 10.3142778,0.569028571 9.55927779,1.43017143 C8.80483334,2.29074286 8.33316668,3.46217143 8.33316668,4.72274286 L8.33316668,5.71417143 L3.13594444,5.71417143 L-0.000166666666,5.71417143 L-0.000166666666,8.42045715 L-0.000166666666,23.9998857 L24.9998333,23.9998857 L24.9998333,5.71417143 L16.6665,5.71417143 Z" id="Fill-1" fill="#232323" fill-rule="nonzero" mask="url(#mask-2)"></path>
            </g>
        </g>
    </g>
</svg>