<?xml version="1.0" encoding="UTF-8"?>
<svg width="38px" height="35px" viewBox="0 0 38 35" version="1.1" xmlns="http://www.w3.org/2000/svg" xmlns:xlink="http://www.w3.org/1999/xlink">
    <!-- Generator: Sketch 48.2 (47327) - http://www.bohemiancoding.com/sketch -->
    <title>Store</title>
    <desc>Created with Sketch.</desc>
    <defs>
        <path d="M9.82917927,0.496933135 C4.35215823,1.82557541 0.309490704,6.45664351 0.309490704,12.0780906 C0.309490704,12.17399 0.30861396,12.2271706 0.309490704,12.2271706 C0.309490704,14.1373118 0.631255827,15.210513 1.1643163,16.4484868 C1.5728791,17.4580457 2.118214,18.4902717 2.78103261,19.349007 C3.70687449,20.6541104 4.8098187,21.9653164 5.94607919,23.2930868 C9.36187461,27.28686 13.0652421,31.3852506 13.0652421,31.3852506 C13.0652421,31.3852506 16.7668562,27.3208607 20.1817748,23.3270875 C21.3197888,21.9993171 22.422733,20.7386762 23.3494516,19.4318292 C24.0113935,18.5748375 24.5558517,17.4571739 24.9635377,16.4484868 C25.4965982,15.2096412 25.8183633,14.1373118 25.8183633,12.2271706 C25.8218703,12.2271706 25.8183633,12.2193242 25.8183633,12.1234249 C25.8183633,6.49674688 21.7704353,1.8316781 16.2864003,0.496933135 L9.82917927,0.496933135 Z M9.03660251,12.3038901 C9.03660251,10.193232 10.8391886,8.48186398 13.0643654,8.48186398 C15.2886654,8.48186398 17.0921283,10.193232 17.0921283,12.3038901 C17.0921283,14.4136764 15.2886654,16.1241725 13.0643654,16.1241725 C10.8391886,16.1241725 9.03660251,14.4136764 9.03660251,12.3038901 Z" id="path-1"></path>
        <polygon id="path-3" points="27.1345975 31.8821838 27.1345975 0 0.746898387 6.29268169e-15 0.746898387 31.8821838"></polygon>
    </defs>
    <g id="Symbols" stroke="none" stroke-width="1" fill="none" fill-rule="evenodd">
        <g id="Store">
            <g id="store">
                <path d="M13.7471738,23.0388663 L-0.00017534884,34.2085283 L0.143610701,34.5903822 L23.3343716,34.5903822 L37.0861045,23.4163611 L36.9440719,23.0388663 L13.7471738,23.0388663 Z M14.3722924,24.7824914 L32.6339974,24.7824914 L22.709253,32.8467571 L4.44842474,32.8467571 L14.3722924,24.7824914 Z" id="Fill-1" fill="#232323" fill-rule="nonzero"></path>
                <g id="Group-4" transform="translate(6.137209, 0.758041)">
                    <g id="Fill-2-Clipped">
                        <g>
                            <mask id="mask-2" fill="white">
                                <use xlink:href="#path-1"></use>
                            </mask>
                            <g id="path-1"></g>
                            <polygon id="Fill-2" fill="#020203" fill-rule="nonzero" mask="url(#mask-2)" points="-4.07423032 35.7443132 30.2020843 35.7443132 30.2020843 -4.24572696 -4.07423032 -4.24572696"></polygon>
                        </g>
                    </g>
                </g>
                <g id="Group-7" transform="translate(5.260465, 0.758041)">
                    <g id="Fill-5-Clipped">
                        <g>
                            <mask id="mask-4" fill="white">
                                <use xlink:href="#path-3"></use>
                            </mask>
                            <g id="path-3"></g>
                            <path d="M13.9410219,8.91864206 C11.9622102,8.91864206 10.3516311,10.4373395 10.3516311,12.3030182 C10.3516311,14.1695688 11.9622102,15.6882663 13.9410219,15.6882663 C15.9198336,15.6882663 17.5304127,14.1695688 17.5304127,12.3030182 C17.5304127,10.4373395 15.9198336,8.91864206 13.9410219,8.91864206 Z M13.9410219,16.5600788 C11.4782474,16.5600788 9.47488694,14.6508094 9.47488694,12.3030182 C9.47488694,9.95609895 11.4782474,8.04682954 13.9410219,8.04682954 C16.4037964,8.04682954 18.4071569,9.95609895 18.4071569,12.3030182 C18.4071569,14.6508094 16.4037964,16.5600788 13.9410219,16.5600788 Z M1.62539608,12.0789624 L1.62539608,12.2271706 C1.62539608,14.0309507 1.91296818,15.0422532 2.44339842,16.2767397 C2.88089378,17.358659 3.42009146,18.3263709 4.00487985,19.0831042 C4.94474963,20.4073874 6.0766264,21.7491069 7.15677526,23.0114914 C9.94832881,26.2746857 12.9652056,29.6451128 13.9427754,30.7331349 C14.9212219,29.6520874 17.9363452,26.3060709 20.7243918,23.0454921 L21.0575546,22.6566637 C22.0789616,21.4666396 23.0433802,20.3428733 23.8675198,19.1807472 C24.4216221,18.4623737 24.9459152,17.4929182 25.4342617,16.2854578 C25.9699524,15.0413814 26.2575245,14.0300788 26.2575245,12.2271706 L26.2575245,12.1234249 C26.2575245,5.74088543 20.7322825,0.549241886 13.9410219,0.549241886 C7.14976131,0.549241886 1.62539608,5.72170555 1.62539608,12.0789624 Z M13.9410219,32.0364946 L13.6157498,31.676436 C13.5789266,31.6354608 9.86942183,27.5283521 6.48869618,23.5755541 C5.3962729,22.2983488 4.24949148,20.939193 3.29910076,19.600089 C2.67661238,18.7954061 2.09708446,17.7562055 1.63328678,16.6106439 C1.09145886,15.3508748 0.768816992,14.2428011 0.74952862,12.4076358 L0.746898387,12.4058921 L0.748651876,12.0789624 C0.748651876,5.24046504 6.66667525,-0.322570632 13.9410219,-0.322570632 C21.2162453,-0.322570632 27.1342687,5.26051673 27.1342687,12.1234249 C27.1351454,12.1609128 27.1342687,12.1949135 27.1316385,12.2271706 L27.1342687,12.2271706 C27.1342687,14.1704407 26.8081198,15.3090278 26.2443733,16.619362 C25.7288477,17.8922083 25.165978,18.930537 24.5732989,19.697732 C23.7368849,20.8781662 22.7601919,22.0167533 21.724757,23.22247 L21.3924709,23.6104266 C18.0134987,27.5623527 14.303994,31.6372045 14.2671708,31.6773078 L13.9410219,32.0364946 Z" id="Fill-5" fill="#FEFEFE" fill-rule="nonzero" mask="url(#mask-4)"></path>
                        </g>
                    </g>
                </g>
            </g>
        </g>
    </g>
</svg>