<?xml version="1.0" encoding="utf-8"?>
<svg width="20px" height="14px" viewBox="0 0 20 14" version="1.1" xmlns="http://www.w3.org/2000/svg" xmlns:xlink="http://www.w3.org/1999/xlink">
    <!-- Generator: Sketch 49.3 (51167) - http://www.bohemiancoding.com/sketch -->
    <desc>Created with Sketch.</desc>
    <defs></defs>
    <g id="Page-1" stroke="none" stroke-width="1" fill="none" fill-rule="evenodd">
        <g id="Monty-Content-Builder-|-Hygiene-Nav-Component" transform="translate(-79.000000, -376.000000)" fill="#000000">
            <g id="Tabs" transform="translate(60.000000, 359.000000)">
                <g id="Tabs-Icon" transform="translate(19.000000, 17.000000)">
                    <g id="Page-1">
                        <path d="M8.34304688,3.42972928 L12.249375,3.42972928 L12.249375,1.673 L8.34304688,1.673 L8.34304688,3.42972928 Z M13.9385547,3.43100552 L18.3127344,3.43100552 L18.3127344,1.66777901 L13.9385547,1.66777901 L13.9385547,3.43100552 Z M18.3204297,5.10095028 L6.66460937,5.10095028 L6.66460937,1.67617127 L1.67996094,1.67617127 L1.67996094,12.3245249 L18.3204297,12.3245249 L18.3204297,5.10095028 Z M20,0 L20,14 C19.9285938,13.9977182 19.8571875,13.9934641 19.7857812,13.9934641 C14.4652344,13.993116 9.1446875,13.9927293 3.82414063,13.9934641 C2.54941406,13.9936188 1.27472656,13.9976796 0,14 L0,0 C0.0714453125,0.00201104972 0.142851563,0.00572375691 0.214296875,0.00576243094 C5.24210938,0.00614917127 10.2699219,0.00672928177 15.2977734,0.00603314917 C16.8651953,0.00580110497 18.4325781,0.00212707182 20,0 Z" id="Fill-1"></path>
                    </g>
                </g>
            </g>
        </g>
    </g>
</svg>
