<?xml version="1.0" encoding="UTF-8"?>
<svg width="305px" height="26px" viewBox="0 0 305 26" version="1.1" xmlns="http://www.w3.org/2000/svg" xmlns:xlink="http://www.w3.org/1999/xlink">
    <!-- Generator: Sketch 48.2 (47327) - http://www.bohemiancoding.com/sketch -->
    <title>TS Logo</title>
    <desc>Created with Sketch.</desc>
    <defs></defs>
    <g id="Symbols" stroke="none" stroke-width="1" fill="none" fill-rule="evenodd">
        <g id="TS-Logo" fill="#231F20" fill-rule="nonzero">
            <g id="logo">
                <polygon id="Shape" points="12.8 5.9 12.8 24.7 7.8 24.7 7.8 5.9 0.5 5.9 0.5 1.3 20.1 1.3 20.1 5.9"></polygon>
                <path d="M55.7,5.6 C52.2,5.6 49.8,8.3 49.8,13 C49.8,17.8 52.3,20.5 55.8,20.5 C59.3,20.5 61.7,17.8 61.7,13.1 C61.7,8.3 59.3,5.6 55.7,5.6 M55.8,25.1 C49.2,25.1 44.7,20.6 44.7,13 C44.7,5.4 49.3,0.9 55.9,0.9 C62.4,0.9 67,5.4 67,13 C67,20.6 62.4,25.1 55.8,25.1" id="Shape"></path>
                <path d="M105.2,5.8 L99.4,5.8 L99.4,11.8 L105.3,11.8 C107.7,11.8 108.9,10.8 108.9,8.7 C108.9,6.8 107.5,5.8 105.2,5.8 M105,16.4 L99.4,16.4 L99.4,24.7 L94.3,24.7 L94.3,1.3 L105.4,1.3 C110.2,1.3 114.1,3.7 114.1,8.7 C114.1,14.1 110.2,16.4 105,16.4" id="Shape"></path>
                <path d="M149.5,25.1 C145.3,25.1 141.6,23.5 139.7,20.8 L143.4,17.8 C145.2,19.7 147.4,20.5 149.9,20.5 C152.9,20.5 154.3,19.7 154.3,18 C154.3,16.5 153.4,15.8 148.7,14.8 C144,13.8 140.8,12.4 140.8,7.8 C140.8,3.5 144.9,0.9 149.8,0.9 C153.7,0.9 156.6,2.3 159,4.6 L155.3,7.9 C153.7,6.4 151.9,5.5 149.6,5.5 C146.9,5.5 146,6.6 146,7.6 C146,9.1 147.1,9.5 151.1,10.4 C155.1,11.3 159.6,12.5 159.6,17.6 C159.4,22.1 156.4,25.1 149.5,25.1" id="Shape"></path>
                <polygon id="Shape" points="202.5 24.7 202.5 14.9 192.2 14.9 192.2 24.7 187.1 24.7 187.1 1.3 192.2 1.3 192.2 10.2 202.5 10.2 202.5 1.3 207.6 1.3 207.6 24.7"></polygon>
                <path d="M246.1,5.6 C242.6,5.6 240.2,8.3 240.2,13 C240.2,17.8 242.7,20.5 246.2,20.5 C249.7,20.5 252.1,17.8 252.1,13.1 C252.1,8.3 249.7,5.6 246.1,5.6 M246.1,25.1 C239.5,25.1 235,20.6 235,13 C235,5.4 239.6,0.9 246.2,0.9 C252.8,0.9 257.3,5.4 257.3,13 C257.3,20.6 252.7,25.1 246.1,25.1" id="Shape"></path>
                <path d="M295.6,5.8 L289.8,5.8 L289.8,11.8 L295.7,11.8 C298.1,11.8 299.3,10.8 299.3,8.7 C299.3,6.8 297.8,5.8 295.6,5.8 M295.4,16.4 L289.8,16.4 L289.8,24.7 L284.7,24.7 L284.7,1.3 L295.8,1.3 C300.6,1.3 304.5,3.7 304.5,8.7 C304.5,14.1 300.6,16.4 295.4,16.4" id="Shape"></path>
            </g>
        </g>
    </g>
</svg>