<?xml version="1.0" encoding="UTF-8"?>
<svg width="40px" height="40px" viewBox="0 0 40 40" version="1.1" xmlns="http://www.w3.org/2000/svg" xmlns:xlink="http://www.w3.org/1999/xlink">
    <!-- Generator: Sketch 48.2 (47327) - http://www.bohemiancoding.com/sketch -->
    <title>Twitter_Icon</title>
    <desc>Created with Sketch.</desc>
    <defs></defs>
    <g id="Symbols" stroke="none" stroke-width="1" fill="none" fill-rule="evenodd">
        <g id="Twitter_Icon" fill-rule="nonzero">
            <g id="Shape">
                <path d="M20,1.35672515 C30.3391813,1.35672515 38.7602339,9.77777778 38.7602339,20.1169591 C38.7602339,30.4561404 30.3391813,38.877193 20,38.877193 C9.66081871,38.877193 1.23976608,30.4561404 1.23976608,20.1169591 C1.23976608,9.75438596 9.66081871,1.35672515 20,1.35672515 Z M20,0.210526316 C9.00584795,0.210526316 0.116959064,9.12280702 0.116959064,20.0935673 C0.116959064,31.0643275 9.02923977,39.9766082 20,39.9766082 C30.9707602,39.9766082 39.8830409,31.0643275 39.8830409,20.0935673 C39.8830409,9.12280702 30.994152,0.210526316 20,0.210526316 Z" fill="#C8C8C8"></path>
                <path d="M30.4561404,13.7076023 C29.6842105,14.0584795 28.8654971,14.2690058 28,14.3859649 C28.8888889,13.8479532 29.5672515,13.005848 29.8947368,12 C29.0526316,12.4912281 28.1403509,12.8421053 27.1578947,13.0292398 C26.3859649,12.1871345 25.2631579,11.6725146 24.0233918,11.6725146 C21.6608187,11.6725146 19.7192982,13.5906433 19.7192982,15.9766082 C19.7192982,16.3274854 19.7660819,16.6315789 19.8362573,16.9590643 C16.2807018,16.7953216 13.0994152,15.0877193 10.994152,12.4912281 C10.619883,13.122807 10.4093567,13.871345 10.4093567,14.6432749 C10.4093567,16.1403509 11.1578947,17.4502924 12.3274854,18.2222222 C11.625731,18.1988304 10.9707602,18.0116959 10.3859649,17.6842105 L10.3859649,17.7309942 C10.3859649,19.8128655 11.8596491,21.5438596 13.8245614,21.9415205 C13.4736842,22.0350877 13.0760234,22.0818713 12.7017544,22.0818713 C12.4210526,22.0818713 12.1637427,22.0584795 11.9064327,22.0116959 C12.4444444,23.7192982 14.0350877,24.9590643 15.9064327,25.005848 C14.4327485,26.1520468 12.5847953,26.8538012 10.5730994,26.8538012 C10.2222222,26.8538012 9.89473684,26.8304094 9.54385965,26.7836257 C11.4385965,28 13.7076023,28.7251462 16.1169591,28.7251462 C24.0233918,28.7251462 28.3508772,22.1754386 28.3508772,16.5146199 C28.3508772,16.3274854 28.3508772,16.1403509 28.3274854,15.9532164 C29.1695906,15.3450292 29.8947368,14.5730994 30.4561404,13.7076023 Z" fill="#232323"></path>
            </g>
        </g>
    </g>
</svg>