<?xml version="1.0" encoding="UTF-8"?>
<svg width="20px" height="20px" viewBox="0 0 20 20" version="1.1" xmlns="http://www.w3.org/2000/svg" xmlns:xlink="http://www.w3.org/1999/xlink">
    <!-- Generator: Sketch 48.2 (47327) - http://www.bohemiancoding.com/sketch -->
    <title>Video icon</title>
    <desc>Created with Sketch.</desc>
    <defs></defs>
    <g id="Symbols" stroke="none" stroke-width="1" fill="none" fill-rule="evenodd">
        <g id="Video-icon">
            <g id="media">
                <g id="Layer_x0020_1" transform="translate(2.646484, 4.833984)" fill="#424242">
                    <path d="M13.8380859,0.692509766 C13.5414492,0.423232422 13.1657686,0.246631836 12.7548926,0.201233398 C11.8618564,0.10127832 10.9607227,0.0509658203 10.0566016,0.0257402344 C9.15828223,0.000687890625 8.25611328,0.000687890625 7.35594727,0.00120693359 C6.45590918,0.000687894531 5.55379883,0.000687894531 4.65536133,0.0257402344 C3.75113672,0.0509655273 2.84973633,0.101277832 1.95619141,0.201233398 C1.54571191,0.246655078 1.17019238,0.423335938 0.873828125,0.692729492 C0.579348633,0.960392578 0.362989258,1.31986719 0.268339844,1.73309082 C0.140563477,2.28699805 0.0759257812,2.86491699 0.0432724609,3.4464209 C0.0104921875,4.03038672 0.00967333984,4.60695801 0.00967333984,5.16669434 C0.00967333984,5.72568848 0.00968487402,6.30150879 0.0416922852,6.8858252 C0.0735498047,7.46706836 0.137403125,8.04496582 0.265247949,8.59896973 C0.360462891,9.01236719 0.576925684,9.37194629 0.871382715,9.63959473 C1.16757021,9.90883789 1.54271963,10.085415 1.95308193,10.1308369 C2.84674111,10.2307813 3.74814053,10.2810928 4.65236904,10.3063066 C5.55079189,10.331359 6.45290615,10.331359 7.35307217,10.3308399 C8.25364053,10.331359 9.15573818,10.331359 10.054039,10.3063066 C10.9581366,10.2810929 11.8592733,10.2307807 12.752828,10.1308369 C13.1631112,10.0854152 13.5381806,9.90889551 13.8344979,9.6397334 C14.1291044,9.37210547 14.3458671,9.01249121 14.441705,8.59897168 C14.5689853,8.04494922 14.6328495,7.46704785 14.6648231,6.88582715 C14.6963692,6.31265723 14.6966345,5.73119824 14.6965884,5.16669629 L14.6971997,5.16669629 L14.6971997,5.13835674 L14.6965884,5.13835674 C14.6966114,4.01677471 14.6966114,2.82886455 14.4448081,1.73310283 C14.3495932,1.31969365 14.1328882,0.96014873 13.8380854,0.692516895 L13.8380859,0.692509766 Z M5.34291992,7.39681641 L5.34291992,2.64342773 L5.34291992,2.38630664 L5.57119336,2.50548926 C6.26263477,2.86649902 6.95208203,3.22626172 7.64215039,3.58634863 C8.47231348,4.01952734 9.30345898,4.4532373 10.1402266,4.89023535 L10.4055361,5.0287959 L10.1396152,5.16672168 L7.85510352,6.35141895 C7.09469922,6.74564648 6.33427344,7.13977051 5.57058203,7.53536426 L5.34291992,7.65329004 L5.34291992,7.39681543 L5.34291992,7.39681641 Z" id="Shape"></path>
                </g>
                <rect id="Rectangle-path" x="0" y="0" width="20" height="20"></rect>
            </g>
        </g>
    </g>
</svg>